<?xml version="1.0" encoding="UTF-8"?>
<svg width="128px" height="128px" viewBox="0 0 128 128" version="1.1" xmlns="http://www.w3.org/2000/svg" xmlns:xlink="http://www.w3.org/1999/xlink" style="background: #FFFFFF;">
    <title>Icon</title>
    <defs>
        <rect id="path-1" x="0" y="0" width="128" height="128"></rect>
    </defs>
    <g id="icon-128x128" stroke="none" stroke-width="1" fill="none" fill-rule="evenodd">
        <g id="Group">
            <g id="Rectangle">
                <use fill="#FFFFFF" fill-rule="evenodd" xlink:href="#path-1"></use>
                <rect stroke="#111111" stroke-width="2" x="1" y="1" width="126" height="126"></rect>
            </g>
            <rect id="Rectangle-2" fill="#111111" x="0" y="96" width="32" height="32"></rect>
            <path d="M25.5833333,110.333333 C25.8133333,110.333333 26,110.52 26,110.750833 L26,113.250833 C26,113.480833 25.8133333,113.6675 25.5833333,113.6675 L23.2041667,113.6675 C23.0375,114.326667 22.8241667,115.058333 22.5558333,115.61 L24.2491667,117.304167 C24.4116667,117.466667 24.4116667,117.730833 24.2491667,117.893333 L21.8925,120.25 C21.73,120.4125 21.4658333,120.4125 21.3033333,120.25 L19.6083333,118.556667 C19.0566667,118.825 18.325,119.038333 17.6666667,119.205 L17.6666667,121.583333 C17.6666667,121.813333 17.48,122 17.25,122 L14.75,122 C14.52,122 14.3333333,121.813333 14.3333333,121.583333 L14.3333333,119.205 C13.6741667,119.038333 12.9425,118.825 12.39,118.555 L10.6966667,120.25 C10.5408333,120.406667 10.2641667,120.406667 10.1075,120.25 L7.75,117.893333 C7.67166667,117.815 7.6275,117.709167 7.6275,117.598333 C7.6275,117.4875 7.67166667,117.381667 7.75,117.303333 L9.44416667,115.609167 C9.17583333,115.0575 8.96333333,114.325833 8.79583333,113.666667 L6.41666667,113.666667 C6.18666667,113.666667 6,113.48 6,113.25 L6,110.75 C6,110.52 6.18666667,110.333333 6.41666667,110.333333 L8.79583333,110.333333 C8.9625,109.674167 9.175,108.943333 9.44416667,108.390833 L7.75,106.6975 C7.67166667,106.619167 7.6275,106.513333 7.6275,106.4025 C7.6275,106.291667 7.67166667,106.185833 7.75,106.108333 L10.1075,103.750833 C10.27,103.588333 10.5341667,103.588333 10.6966667,103.750833 L12.3908333,105.444167 C12.9441667,105.175 13.675,104.963333 14.3333333,104.796667 L14.3333333,102.416667 C14.3333333,102.186667 14.52,102 14.75,102 L17.25,102 C17.48,102 17.6666667,102.186667 17.6666667,102.416667 L17.6666667,104.796667 C18.3241667,104.963333 19.0541667,105.175 19.6083333,105.444167 L21.3025,103.750833 C21.465,103.588333 21.7291667,103.588333 21.8916667,103.750833 L24.25,106.108333 C24.3275,106.185833 24.3716667,106.291667 24.3716667,106.4025 C24.3716667,106.513333 24.3283333,106.619167 24.25,106.6975 L22.5566667,108.39 C22.8258333,108.944167 23.0383333,109.675 23.2041667,110.333333 L25.5833333,110.333333 Z M16,107.833333 C13.7025,107.833333 11.8333333,109.7025 11.8333333,112 C11.8333333,114.2975 13.7025,116.166667 16,116.166667 C18.2975,116.166667 20.1666667,114.2975 20.1666667,112 C20.1666667,109.7025 18.2975,107.833333 16,107.833333 Z" id="Shape" fill="#FFFFFF" fill-rule="nonzero"></path>
            <path d="M82.7888889,75.1222222 C82.7888889,77.9222362 82.2055614,80.3786931 81.0388889,82.4916667 C79.8722164,84.6046402 78.310195,86.3611041 76.3527778,87.7611111 C74.3953606,89.1611181 72.1333462,90.217589 69.5666667,90.9305556 C66.9999872,91.6435221 64.3166807,92 61.5166667,92 C59.4166562,92 57.4398241,91.844446 55.5861111,91.5333333 C53.7323981,91.2222207 52.0925997,90.8722242 50.6666667,90.4833333 C49.0073991,90.0425904 47.4518591,89.5370399 46,88.9666667 L46,74.3833333 L52.3,74.3833333 L53.6222222,84.0277778 C53.6740743,84.3388904 53.8296283,84.6175914 54.0888889,84.8638889 C54.3481494,85.1101864 54.5425919,85.2333333 54.6722222,85.2333333 C55.2944476,85.4925939 55.9425892,85.7259249 56.6166667,85.9333333 C57.2129659,86.1148157 57.8740704,86.2703697 58.6,86.4 C59.3259296,86.5296303 60.0648111,86.5944444 60.8166667,86.5944444 C61.9833392,86.5944444 63.1759198,86.4518533 64.3944444,86.1666667 C65.6129691,85.8814801 66.7212913,85.4407437 67.7194444,84.8444444 C68.7175976,84.2481452 69.5277747,83.4703752 70.15,82.5111111 C70.7722253,81.5518471 71.0833333,80.4111177 71.0833333,79.0888889 C71.0833333,77.4296213 70.6944483,75.9972283 69.9166667,74.7916667 C69.138885,73.5861051 68.127784,72.4972271 66.8833333,71.525 C65.6388827,70.5527729 64.2324153,69.6583374 62.6638889,68.8416667 C61.0953625,68.0249959 59.5203783,67.1888932 57.9388889,66.3333333 C56.5388819,65.5814777 55.1842658,64.7713006 53.875,63.9027778 C52.5657342,63.0342549 51.4055606,62.0425982 50.3944444,60.9277778 C49.3833283,59.8129574 48.5796326,58.5425997 47.9833333,57.1166667 C47.3870341,55.6907336 47.0888889,54.0444538 47.0888889,52.1777778 C47.0888889,49.5851722 47.6074022,47.2842693 48.6444444,45.275 C49.6814867,43.2657307 51.0814727,41.5740809 52.8444444,40.2 C54.6074162,38.8259191 56.6490625,37.782411 58.9694444,37.0694444 C61.2898264,36.3564779 63.7333205,36 66.3,36 C68.3222323,36 70.2407317,36.1685168 72.0555556,36.5055556 C73.8703794,36.8425943 75.4777708,37.2055536 76.8777778,37.5944444 C78.4851932,38.0611134 79.9759191,38.5925896 81.35,39.1888889 L81.35,52.2555556 L75.2055556,52.2555556 L73.8833333,43.7388889 C73.8574073,43.6351847 73.7861117,43.5185192 73.6694444,43.3888889 C73.5527772,43.2592586 73.4296303,43.1296303 73.3,43 C73.1444437,42.8703697 72.962964,42.7407414 72.7555556,42.6111111 C72.4703689,42.3777766 72.0944468,42.1703713 71.6277778,41.9888889 C71.2388869,41.8333326 70.7462993,41.68426 70.15,41.5416667 C69.5537007,41.3990734 68.8277821,41.3277778 67.9722222,41.3277778 C66.6499934,41.3277778 65.39908,41.4833318 64.2194444,41.7944444 C63.0398089,42.1055571 62.0027823,42.5592563 61.1083333,43.1555556 C60.2138844,43.7518548 59.5009286,44.5036992 58.9694444,45.4111111 C58.4379603,46.3185231 58.1722222,47.3555497 58.1722222,48.5222222 C58.1722222,49.9222292 58.4703674,51.1601798 59.0666667,52.2361111 C59.6629659,53.3120424 60.4601802,54.2777735 61.4583333,55.1333333 C62.4564865,55.9888932 63.6036972,56.7666632 64.9,57.4666667 C66.1963028,58.1666702 67.5444374,58.8666632 68.9444444,59.5666667 C70.603712,60.3963004 72.2564733,61.2648103 73.9027778,62.1722222 C75.5490823,63.0796342 77.0333267,64.1231422 78.3555556,65.3027778 C79.6777844,66.4824133 80.7472181,67.8629551 81.5638889,69.4444444 C82.3805596,71.0259338 82.7888889,72.9185075 82.7888889,75.1222222 Z" id="S" fill="#000000"></path>
        </g>
    </g>
</svg>